<?xml version="1.0" encoding="UTF-8" standalone="no"?>
<!-- Created with Inkscape (http://www.inkscape.org/) -->

<svg
   width="108mm"
   height="108mm"
   viewBox="0 0 108 108"
   version="1.1"
   id="svg1"
   inkscape:version="1.4.3 (0d15f75042, 2025-12-25)"
   sodipodi:docname="logo.svg"
   xmlns:inkscape="http://www.inkscape.org/namespaces/inkscape"
   xmlns:sodipodi="http://sodipodi.sourceforge.net/DTD/sodipodi-0.dtd"
   xmlns="http://www.w3.org/2000/svg"
   xmlns:svg="http://www.w3.org/2000/svg">
  <sodipodi:namedview
     id="namedview1"
     pagecolor="#ffffff"
     bordercolor="#000000"
     borderopacity="0.25"
     inkscape:showpageshadow="2"
     inkscape:pageopacity="0.0"
     inkscape:pagecheckerboard="0"
     inkscape:deskcolor="#d1d1d1"
     inkscape:document-units="mm"
     inkscape:zoom="0.85315875"
     inkscape:cx="-169.37059"
     inkscape:cy="11.721148"
     inkscape:window-width="2560"
     inkscape:window-height="1390"
     inkscape:window-x="0"
     inkscape:window-y="27"
     inkscape:window-maximized="1"
     inkscape:current-layer="layer1"
     showgrid="true">
    <sodipodi:guide
       position="-1.7529297e-07,87.000002"
       orientation="0,1"
       id="guide1"
       inkscape:locked="false"
       inkscape:label=""
       inkscape:color="rgb(0,134,229)" />
    <sodipodi:guide
       position="87.000002,108"
       orientation="-1,0"
       id="guide2"
       inkscape:locked="false"
       inkscape:label=""
       inkscape:color="rgb(0,134,229)" />
    <sodipodi:guide
       position="108,21.000001"
       orientation="0,1"
       id="guide3"
       inkscape:locked="false"
       inkscape:label=""
       inkscape:color="rgb(0,134,229)" />
    <sodipodi:guide
       position="21.000001,21.000001"
       orientation="-1,0"
       id="guide4"
       inkscape:locked="false"
       inkscape:label=""
       inkscape:color="rgb(0,134,229)" />
  </sodipodi:namedview>
  <defs
     id="defs1">
    <clipPath
       clipPathUnits="userSpaceOnUse"
       id="clipPath1">
      <rect
         style="opacity:1;fill:#808080;fill-opacity:1;stroke:none;stroke-width:0;stroke-linecap:round;stroke-linejoin:miter;stroke-dasharray:none;stroke-opacity:1"
         id="rect1"
         width="131.44797"
         height="130.67564"
         x="39.158333"
         y="83.07917"
         ry="22.535339" />
    </clipPath>
    <clipPath
       clipPathUnits="userSpaceOnUse"
       id="clipPath2">
      <rect
         style="opacity:1;fill:#808080;fill-opacity:1;stroke:none;stroke-width:0;stroke-linecap:round;stroke-linejoin:miter;stroke-dasharray:none;stroke-opacity:1"
         id="rect2"
         width="131.44797"
         height="130.67564"
         x="39.158333"
         y="83.07917"
         ry="22.535339" />
    </clipPath>
    <clipPath
       clipPathUnits="userSpaceOnUse"
       id="clipPath3">
      <rect
         style="opacity:1;fill:#808080;fill-opacity:1;stroke:none;stroke-width:0;stroke-linecap:round;stroke-linejoin:miter;stroke-dasharray:none;stroke-opacity:1"
         id="rect3"
         width="131.44797"
         height="130.67564"
         x="39.158333"
         y="83.07917"
         ry="22.535339" />
    </clipPath>
    <clipPath
       clipPathUnits="userSpaceOnUse"
       id="clipPath4">
      <rect
         style="opacity:1;fill:#808080;fill-opacity:1;stroke:none;stroke-width:0;stroke-linecap:round;stroke-linejoin:miter;stroke-dasharray:none;stroke-opacity:1"
         id="rect4"
         width="131.44797"
         height="130.67564"
         x="39.158333"
         y="83.07917"
         ry="22.535339" />
    </clipPath>
    <clipPath
       clipPathUnits="userSpaceOnUse"
       id="clipPath5">
      <rect
         style="opacity:1;fill:#808080;fill-opacity:1;stroke:none;stroke-width:0;stroke-linecap:round;stroke-linejoin:miter;stroke-dasharray:none;stroke-opacity:1"
         id="rect5"
         width="131.44797"
         height="130.67564"
         x="39.158333"
         y="83.07917"
         ry="22.535339" />
    </clipPath>
    <clipPath
       clipPathUnits="userSpaceOnUse"
       id="clipPath6">
      <rect
         style="opacity:1;fill:#808080;fill-opacity:1;stroke:none;stroke-width:0;stroke-linecap:round;stroke-linejoin:miter;stroke-dasharray:none;stroke-opacity:1"
         id="rect6"
         width="131.44797"
         height="130.67564"
         x="39.158333"
         y="83.07917"
         ry="22.535339" />
    </clipPath>
    <clipPath
       clipPathUnits="userSpaceOnUse"
       id="clipPath7">
      <rect
         style="opacity:1;fill:#808080;fill-opacity:1;stroke:none;stroke-width:0;stroke-linecap:round;stroke-linejoin:miter;stroke-dasharray:none;stroke-opacity:1"
         id="rect8"
         width="131.44797"
         height="130.67564"
         x="39.158333"
         y="83.07917"
         ry="22.535339" />
    </clipPath>
    <clipPath
       clipPathUnits="userSpaceOnUse"
       id="clipPath8">
      <rect
         style="opacity:1;fill:#808080;fill-opacity:1;stroke:none;stroke-width:0;stroke-linecap:round;stroke-linejoin:miter;stroke-dasharray:none;stroke-opacity:1"
         id="rect9"
         width="131.44797"
         height="130.67564"
         x="39.158333"
         y="83.07917"
         ry="22.535339" />
    </clipPath>
    <clipPath
       clipPathUnits="userSpaceOnUse"
       id="clipPath9">
      <rect
         style="opacity:1;fill:#808080;fill-opacity:1;stroke:none;stroke-width:0;stroke-linecap:round;stroke-linejoin:miter;stroke-dasharray:none;stroke-opacity:1"
         id="rect10"
         width="131.44797"
         height="130.67564"
         x="39.158333"
         y="83.07917"
         ry="22.535339" />
    </clipPath>
    <clipPath
       clipPathUnits="userSpaceOnUse"
       id="clipPath10">
      <rect
         style="opacity:1;fill:#808080;fill-opacity:1;stroke:none;stroke-width:0;stroke-linecap:round;stroke-linejoin:miter;stroke-dasharray:none;stroke-opacity:1"
         id="rect11"
         width="131.44797"
         height="130.67564"
         x="39.158333"
         y="83.07917"
         ry="22.535339" />
    </clipPath>
    <clipPath
       clipPathUnits="userSpaceOnUse"
       id="clipPath11">
      <rect
         style="opacity:1;fill:#808080;fill-opacity:1;stroke:none;stroke-width:0;stroke-linecap:round;stroke-linejoin:miter;stroke-dasharray:none;stroke-opacity:1"
         id="rect12"
         width="131.44797"
         height="130.67564"
         x="39.158333"
         y="83.07917"
         ry="22.535339" />
    </clipPath>
    <clipPath
       clipPathUnits="userSpaceOnUse"
       id="clipPath13">
      <rect
         style="opacity:1;fill:#808080;fill-opacity:1;stroke:none;stroke-width:0;stroke-linecap:round;stroke-linejoin:miter;stroke-dasharray:none;stroke-opacity:1"
         id="rect14"
         width="131.44797"
         height="130.67564"
         x="39.158333"
         y="83.07917"
         ry="22.535339" />
    </clipPath>
    <clipPath
       clipPathUnits="userSpaceOnUse"
       id="clipPath14">
      <rect
         style="opacity:1;fill:#808080;fill-opacity:1;stroke:none;stroke-width:0;stroke-linecap:round;stroke-linejoin:miter;stroke-dasharray:none;stroke-opacity:1"
         id="rect15"
         width="131.44797"
         height="130.67564"
         x="39.158333"
         y="83.07917"
         ry="22.535339" />
    </clipPath>
    <clipPath
       clipPathUnits="userSpaceOnUse"
       id="clipPath15">
      <rect
         style="opacity:1;fill:#808080;fill-opacity:1;stroke:none;stroke-width:0;stroke-linecap:round;stroke-linejoin:miter;stroke-dasharray:none;stroke-opacity:1"
         id="rect16"
         width="131.44797"
         height="130.67564"
         x="39.158333"
         y="83.07917"
         ry="22.535339" />
    </clipPath>
    <clipPath
       clipPathUnits="userSpaceOnUse"
       id="clipPath16">
      <rect
         style="opacity:1;fill:#808080;fill-opacity:1;stroke:none;stroke-width:0;stroke-linecap:round;stroke-linejoin:miter;stroke-dasharray:none;stroke-opacity:1"
         id="rect17"
         width="131.44797"
         height="130.67564"
         x="39.158333"
         y="83.07917"
         ry="22.535339" />
    </clipPath>
    <clipPath
       clipPathUnits="userSpaceOnUse"
       id="clipPath17">
      <rect
         style="opacity:1;fill:#808080;fill-opacity:1;stroke:none;stroke-width:0;stroke-linecap:round;stroke-linejoin:miter;stroke-dasharray:none;stroke-opacity:1"
         id="rect18"
         width="131.44797"
         height="130.67564"
         x="39.158333"
         y="83.07917"
         ry="22.535339" />
    </clipPath>
  </defs>
  <g
     inkscape:label="Layer 1"
     inkscape:groupmode="layer"
     id="layer1"
     transform="translate(-39.158333,-83.079167)">
    <path
       style="fill:#171727;fill-opacity:1;stroke:#0b0d1e;stroke-width:6.49999;stroke-linecap:round;stroke-linejoin:round;stroke-dasharray:none;stroke-opacity:1"
       d="m 103.74773,217.00481 7.26616,0.0156"
       id="path2-2-6-3"
       sodipodi:nodetypes="cc"
       clip-path="url(#clipPath8)"
       transform="matrix(0.82161788,0,0,0.82161788,6.9851464,14.819839)" />
    <path
       style="fill:#171727;fill-opacity:1;stroke:#0b0d1e;stroke-width:6.49998;stroke-linecap:round;stroke-linejoin:round;stroke-dasharray:none;stroke-opacity:1"
       d="m 103.74773,230.22182 13.63012,0.0156"
       id="path2-2-7-0"
       sodipodi:nodetypes="cc"
       clip-path="url(#clipPath7)"
       transform="matrix(0.82161788,0,0,0.82161788,6.9851464,14.819839)" />
    <path
       style="fill:#171727;fill-opacity:1;stroke:#0b0d1e;stroke-width:6.49999;stroke-linecap:round;stroke-linejoin:round;stroke-dasharray:none;stroke-opacity:1"
       d="m 103.74773,243.43884 7.26616,0.0156"
       id="path2-2-3-7"
       sodipodi:nodetypes="cc"
       clip-path="url(#clipPath6)"
       transform="matrix(0.82161788,0,0,0.82161788,6.9851464,14.819839)" />
    <g
       id="g5"
       transform="matrix(0.93385541,0,0,0.93385541,6.1132826,7.6568453)">
      <g
         id="g4"
         transform="matrix(1.0000403,0,0,1.0000403,0.04830778,11.202722)">
        <path
           id="path69-5"
           style="baseline-shift:baseline;display:inline;overflow:visible;vector-effect:none;fill:#002255;fill-opacity:1;stroke-width:0.821618;stroke-linecap:round;stroke-linejoin:round;enable-background:accumulate;stop-color:#000000"
           d="m 93.994307,93.308387 v 3.482427 h 4.28e-4 V 225.44534 c 0,1.87375 1.592131,3.4646 3.465871,3.4646 h 25.049954 c 1.87374,0 3.4663,-1.59085 3.4663,-3.4646 V 96.773831 c 0,-1.873749 -1.59256,-3.464598 -3.4663,-3.464598 H 98.925839 v -8.22e-4 z m 5.340829,5.341247 H 120.63603 V 223.56954 H 99.335136 v -5.51703 l 4.622854,0.01 a 2.670254,2.670254 0 0 0 2.67657,-2.66384 2.670254,2.670254 0 0 0 -2.66552,-2.67656 l -4.633904,-0.01 v -5.52 l 9.854144,0.011 a 2.6702499,2.6702499 0 0 0 2.6736,-2.66724 2.6702499,2.6702499 0 0 0 -2.66724,-2.67317 l -9.860504,-0.0115 v -5.51703 l 4.622854,0.01 a 2.670254,2.670254 0 0 0 2.67657,-2.66553 2.670254,2.670254 0 0 0 -2.66552,-2.67487 l -4.633904,-0.0102 v -5.51831 l 4.622854,0.01 a 2.670254,2.670254 0 0 0 2.67657,-2.66553 2.670254,2.670254 0 0 0 -2.66552,-2.67488 l -4.633904,-0.0102 v -5.51829 l 4.622854,0.01 a 2.670254,2.670254 0 0 0 2.67657,-2.66552 2.670254,2.670254 0 0 0 -2.66552,-2.6753 l -4.633904,-0.01 v -5.52 l 9.854144,0.0114 a 2.6702499,2.6702499 0 0 0 2.6736,-2.66893 2.6702499,2.6702499 0 0 0 -2.66724,-2.6719 l -9.860504,-0.011 v -5.51872 l 4.622854,0.01 a 2.670254,2.670254 0 0 0 2.67657,-2.66383 2.670254,2.670254 0 0 0 -2.66552,-2.67658 l -4.633904,-0.0102 v -5.5183 l 4.622854,0.01 a 2.670254,2.670254 0 0 0 2.67657,-2.66384 2.670254,2.670254 0 0 0 -2.66552,-2.67699 l -4.633904,-0.01 v -5.51831 l 4.622854,0.01 a 2.670254,2.670254 0 0 0 2.67657,-2.66383 2.670254,2.670254 0 0 0 -2.66552,-2.677 l -4.633904,-0.01 v -5.52 l 9.854144,0.0115 a 2.6702499,2.6702499 0 0 0 2.6736,-2.66723 2.6702499,2.6702499 0 0 0 -2.66724,-2.67359 l -9.860504,-0.011 v -5.51746 l 4.622854,0.0102 a 2.670254,2.670254 0 0 0 2.67657,-2.66383 2.670254,2.670254 0 0 0 -2.66552,-2.67699 l -4.633904,-0.01 z m -1.335737,27.183916 1.037678,0.002 -1.037678,-0.002 a 2.670254,2.670254 0 0 0 -1.022824,0.20083 2.670254,2.670254 0 0 0 -0.867842,0.57743 2.670254,2.670254 0 0 1 0.867842,-0.57743 2.670254,2.670254 0 0 1 1.022824,-0.20126 z m 0,10.85913 1.037678,0.002 -1.037678,-0.002 a 2.670254,2.670254 0 0 0 -1.022824,0.20083 2.670254,2.670254 0 0 0 -0.867842,0.57743 2.670254,2.670254 0 0 1 0.867842,-0.57743 2.670254,2.670254 0 0 1 1.022824,-0.20126 z m 0,10.85913 1.255917,0.003 -1.255917,-0.003 a 2.670254,2.670254 0 0 0 -1.022824,0.20082 2.670254,2.670254 0 0 0 -0.867842,0.57744 2.670254,2.670254 0 0 1 0.867842,-0.57744 2.670254,2.670254 0 0 1 1.022824,-0.20124 z m 0,21.71996 1.037678,0.002 -1.037678,-0.002 a 2.670254,2.670254 0 0 0 -0.691219,0.0892 2.670254,2.670254 0 0 0 -0.644518,0.26536 2.670254,2.670254 0 0 1 0.644518,-0.26536 2.670254,2.670254 0 0 1 0.691219,-0.0896 z m 0,10.85913 1.255917,0.003 -1.255917,-0.003 a 2.670254,2.670254 0 0 0 -0.691219,0.0892 2.670254,2.670254 0 0 0 -0.644518,0.26536 2.670254,2.670254 0 0 1 0.644518,-0.26536 2.670254,2.670254 0 0 1 0.691219,-0.0896 z m 0,10.85913 1.255917,0.003 -1.255917,-0.003 a 2.670254,2.670254 0 0 0 -0.691219,0.0892 2.670254,2.670254 0 0 0 -0.644518,0.26536 2.670254,2.670254 0 0 1 0.644518,-0.26536 2.670254,2.670254 0 0 1 0.691219,-0.0896 z m 0,21.71868 1.037678,0.002 -1.037678,-0.002 a 2.670254,2.670254 0 0 0 -0.691646,0.0892 2.670254,2.670254 0 0 1 0.691646,-0.0896 z" />
        <path
           id="path8-6"
           style="baseline-shift:baseline;display:inline;overflow:visible;vector-effect:none;fill:#002255;fill-opacity:1;stroke-width:0.821618;stroke-linecap:round;stroke-linejoin:round;enable-background:accumulate;stop-color:#000000"
           d="m 91.90154,93.307959 c -8.731744,0 -15.867512,7.135771 -15.867512,15.867511 0,6.75316 4.288394,12.50967 10.262172,14.79077 l -9.76626,0.12355 c -4.682277,-0.004 -8.721843,2.44341 -11.565208,5.56501 -2.843357,3.12159 -4.686697,6.94908 -4.623285,10.75341 l -0.0016,-0.045 v 33.84223 c 2.4e-5,0.15486 0.01356,0.30942 0.04034,0.46194 0.840573,4.78797 5.106511,7.51119 9.132349,7.53592 1.330717,0.008 2.649915,-0.38401 3.909134,-0.95021 l -0.150726,38.91131 c -6.4e-4,0.22567 0.02728,0.45051 0.08322,0.66914 1.286194,5.04507 5.369544,8.06863 9.572218,8.04797 3.436557,-0.0168 6.81712,-1.76504 9.244869,-4.8084 v -45.61675 c -0.337833,-0.15169 -0.71286,-0.23523 -1.107319,-0.23309 -1.47487,0.008 -2.663964,1.21018 -2.655765,2.68505 l 0.213572,38.85358 c -1.592452,2.55796 -3.888504,3.76977 -5.722528,3.77878 -1.899515,0.009 -3.45151,-0.824 -4.286167,-3.80638 l 0.176205,-45.51953 -0.0016,-0.002 c 5.67e-4,-0.006 8.22e-4,-0.0116 0.0016,-0.0174 L 78.68009,145.80001 c -0.0058,-1.47454 -1.205002,-2.66558 -2.679543,-2.66044 -1.475371,0.005 -2.666939,1.20588 -2.660859,2.68124 l 0.107419,28.02502 c -0.475282,2.22769 -2.056436,3.02969 -3.90234,3.01835 -1.849774,-0.0113 -3.430978,-0.86161 -3.864127,-3.00902 v -33.49194 c 1.24e-4,-0.015 1.24e-4,-0.03 0,-0.045 -0.03023,-1.81163 1.156797,-4.78947 3.231497,-7.06718 2.074701,-2.27771 4.841277,-3.82327 7.613194,-3.82082 0.01175,7e-5 0.0235,7e-5 0.03525,0 l 12.999877,-0.16389 c 1.141309,-0.0145 2.147249,-0.75273 2.503338,-1.83717 0.05004,-0.15258 0.08433,-0.26835 0.107426,-0.35707 v -7.37204 c -0.08931,0.002 -0.17912,0.002 -0.269613,0.002 -5.845524,0 -10.527103,-4.68158 -10.527103,-10.5271 0,-5.84553 4.681587,-10.527113 10.527103,-10.527113 0.09049,0 0.180304,8.21e-4 0.269613,0.0033 v -5.337764 c -0.08283,-0.0033 -0.172391,-0.0058 -0.269186,-0.0058 z" />
        <path
           id="rect78-2"
           style="fill:#ffcc00;fill-opacity:1;stroke:#808080;stroke-width:0;stroke-linecap:round;stroke-linejoin:miter;stroke-dasharray:none;stroke-opacity:1"
           d="m 101.50908,101.96061 c 1.82916,-0.0204 3.89572,-0.22268 5.41246,1.02148 1.89982,1.44951 2.50185,4.38946 1.12352,6.39131 -1.01555,1.64142 -3.032,2.4774 -4.92095,2.2695 -0.53828,0.0122 -1.07673,8.2e-4 -1.61503,-0.004 0.1244,0.37595 -0.30425,1.30115 0.32864,1.17212 2.84308,0.0373 5.70281,-0.12605 8.53394,0.15318 2.78256,0.63727 4.53449,4.08237 3.22987,6.66971 -0.87143,1.95664 -3.10245,3.13268 -5.21044,2.85347 -2.294,0.0109 -4.588,0.0144 -6.88201,0.006 0.11818,0.35548 -0.25962,1.20356 0.23268,1.18749 1.79002,-0.0535 3.81155,-0.16209 5.2651,1.08479 1.83407,1.47507 2.39424,4.35471 1.0382,6.32798 -1.01941,1.64463 -3.04141,2.47777 -4.93378,2.26544 -0.53397,0.0136 -1.06817,0.004 -1.6022,-1.3e-4 0.11927,0.35174 -0.26133,1.19991 0.23268,1.17948 1.78955,-0.051 3.81192,-0.16112 5.2651,1.08639 1.83407,1.47507 2.39424,4.3547 1.0382,6.32798 -1.01941,1.64462 -3.04141,2.47776 -4.93378,2.26543 -0.53397,0.0136 -1.06817,0.004 -1.6022,-1.2e-4 0.11931,0.35275 -0.26198,1.20271 0.23429,1.18108 1.7947,-0.0564 3.82133,-0.16175 5.27472,1.09442 1.88742,1.51983 2.39766,4.53218 0.90768,6.49754 -1.05393,1.53203 -2.99126,2.28466 -4.81288,2.08623 -0.53451,0.0136 -1.06924,0.004 -1.60381,-1.2e-4 0.1244,0.37596 -0.30425,1.30115 0.32864,1.17212 2.84142,0.0379 5.69954,-0.12639 8.52907,0.15022 2.76093,0.63597 4.52759,4.03316 3.25665,6.6192 -0.85594,1.98277 -3.10233,3.19353 -5.23074,2.90696 -2.29453,0.0109 -4.58907,0.0143 -6.88362,0.006 0.11898,0.35628 -0.26261,1.20977 0.2375,1.18749 1.79955,-0.0559 3.83713,-0.1622 5.28756,1.10886 1.83579,1.49923 2.3666,4.41382 0.96244,6.37648 -1.02948,1.60339 -3.02206,2.39531 -4.88369,2.19286 -0.53451,0.0136 -1.06924,0.004 -1.60381,-1.2e-4 0.11982,0.35332 -0.26395,1.20683 0.2375,1.18108 1.79974,-0.0565 3.83547,-0.16097 5.28756,1.10726 1.83516,1.50032 2.36714,4.41476 0.96244,6.37808 -1.02948,1.60338 -3.02206,2.39531 -4.88369,2.19286 -0.53451,0.0136 -1.06924,0.004 -1.60381,-1.2e-4 0.11953,0.35201 -0.26233,1.20198 0.23429,1.17947 1.8003,-0.0553 3.83549,-0.15883 5.28917,1.10726 1.83796,1.4998 2.36703,4.41554 0.96511,6.38094 -1.03366,1.59981 -3.02139,2.39525 -4.88476,2.1916 -0.53451,0.0136 -1.06924,0.004 -1.60381,-1.2e-4 0.12451,0.37532 -0.30445,1.30028 0.32864,1.17052 2.84054,0.0371 5.6971,-0.12594 8.52616,0.14891 2.77274,0.6354 4.54097,4.06042 3.24777,6.64851 -0.86779,1.96622 -3.10188,3.16746 -5.22216,2.87735 -2.29347,0.0109 -4.58693,0.0143 -6.88041,0.006 0.11812,0.35448 -0.25895,1.20074 0.23108,1.18589 1.81387,-0.0574 3.87774,-0.15936 5.32645,1.14104 1.81371,1.49903 2.32342,4.38998 0.93567,6.33928 -1.01773,1.57696 -2.96585,2.39326 -4.80913,2.19906 -0.56119,0.0181 -1.12277,0.005 -1.68407,3e-4 0.12495,0.37188 -0.30528,1.29893 0.32865,1.16183 5.54121,0 11.08242,0 16.62363,0 0,-40.19081 0,-80.38162 0,-120.57242 -5.65075,0 -11.30152,0 -16.95228,0 0,0.37978 0,0.75956 0,1.13935 z" />
      </g>
    </g>
  </g>
</svg>
